<?xml version="1.0" standalone="no"?>
<!DOCTYPE svg PUBLIC "-//W3C//DTD SVG 20010904//EN"
 "http://www.w3.org/TR/2001/REC-SVG-20010904/DTD/svg10.dtd">
<svg version="1.0" xmlns="http://www.w3.org/2000/svg"
 width="500.000000pt" height="500.000000pt" viewBox="0 0 500.000000 500.000000"
 preserveAspectRatio="xMidYMid meet">

<g transform="translate(0.000000,500.000000) scale(0.100000,-0.100000)"
fill="#000000" stroke="none">
<path d="M2590 2876 l0 -1074 225 2 225 1 2 440 3 440 395 0 395 0 5 -440 5
-440 205 -3 c113 -1 215 0 228 3 l22 5 0 1070 0 1070 -230 0 -230 0 0 -425 0
-425 -400 0 -400 0 0 425 0 425 -225 0 -225 0 0 -1074z"/>
<path d="M1454 3506 c-99 -25 -178 -71 -264 -150 -21 -19 -41 -32 -44 -29 -3
4 -6 39 -6 80 l0 73 -215 0 -215 0 0 -1150 0 -1150 225 0 225 0 0 385 c0 212
2 385 5 385 3 0 16 -9 28 -21 41 -39 132 -97 182 -115 72 -25 286 -31 378 -10
91 21 219 75 210 88 -3 6 -1 8 5 4 16 -10 130 83 185 150 56 68 84 120 121
224 48 133 59 216 59 435 -1 182 -3 209 -27 305 -15 58 -41 133 -58 168 -63
131 -217 258 -372 308 -69 23 -102 27 -226 30 -97 2 -162 -1 -196 -10z m228
-364 c38 -19 80 -49 97 -69 96 -116 131 -308 97 -528 -32 -206 -102 -326 -228
-392 -48 -25 -63 -27 -158 -28 -86 0 -113 4 -151 21 -60 28 -114 76 -146 132
-24 41 -27 59 -36 211 -12 208 2 423 32 494 29 67 114 149 181 175 45 18 73
21 150 19 85 -2 103 -6 162 -35z"/>
</g>
</svg>
